<svg xmlns="http://www.w3.org/2000/svg" xmlns:xlink="http://www.w3.org/1999/xlink" data-name="Layer 1" viewBox="0 0 64 64"><defs><linearGradient id="a" x1="1.494" x2="99.161" y1="2.709" y2="80.709" gradientUnits="userSpaceOnUse"><stop offset="0" stop-color="#fff"/><stop offset="1" stop-color="#fff"/></linearGradient><linearGradient id="b" x1="-11.245" x2="86.422" y1="18.66" y2="96.66" xlink:href="#a"/><linearGradient id="c" x1="-7.146" x2="90.52" y1="13.528" y2="91.528" xlink:href="#a"/><linearGradient id="d" x1="9.167" x2="106.834" y1="-6.899" y2="71.101" xlink:href="#a"/><linearGradient id="e" x1="-4.313" x2="93.354" y1="9.98" y2="87.98" xlink:href="#a"/><linearGradient id="f" x1="-4.72" x2="92.947" y1="10.49" y2="88.49" xlink:href="#a"/><linearGradient id="g" x1="4.049" x2="101.716" y1="-.49" y2="77.51" xlink:href="#a"/></defs><path fill="url(#a)" d="M1,33a1,1,0,0,0,1-1V14a2,2,0,0,1,2-2H48a2,2,0,0,1,2,2,1,1,0,0,0,2,0,4,4,0,0,0-4-4H4a4,4,0,0,0-4,4V32A1,1,0,0,0,1,33Z"/><path fill="url(#b)" d="M19.419,49H16.5a2.5,2.5,0,0,0,0,5H28.35a1,1,0,0,0,0-2H16.5a.5.5,0,0,1,0-1H28a1,1,0,0,0,0-2H21.579a6.363,6.363,0,0,0,0-4H28a1,1,0,0,0,0-2H4a2,2,0,0,1-2-2V37H28a1,1,0,0,0,0-2H1a1,1,0,0,0-1,1v5a4,4,0,0,0,4,4H19.419A4.379,4.379,0,0,1,19.419,49Z"/><path fill="url(#c)" d="M28,39H24a1,1,0,0,0,0,2h4a1,1,0,0,0,0-2Z"/><path fill="url(#d)" d="M53,17H34a3.009,3.009,0,0,0-3,3v2a1,1,0,0,0,1,1H54v2a1,1,0,0,0,2,0V20A3.009,3.009,0,0,0,53,17Zm1,4H33V20a1,1,0,0,1,1-1H53a1,1,0,0,1,1,1Z"/><path fill="url(#e)" d="M32,25a1,1,0,0,0-1,1V51a3,3,0,0,0,3,3H45.35a1,1,0,0,0,0-2H34a1,1,0,0,1-1-1V46H45a1,1,0,0,0,0-2H33V26A1,1,0,0,0,32,25Z"/><path fill="url(#f)" d="M45,48H42a1,1,0,0,0,0,2h3a1,1,0,0,0,0-2Z"/><path fill="url(#g)" d="M61,28H51a3.009,3.009,0,0,0-3,3v2a1,1,0,0,0,1,1H62V48H50V37a1,1,0,0,0-2,0V51a3.009,3.009,0,0,0,3,3H61a3.009,3.009,0,0,0,3-3V31A3.009,3.009,0,0,0,61,28Zm1,23a1,1,0,0,1-1,1H51a1,1,0,0,1-1-1V50H62Zm0-19H50V31a1,1,0,0,1,1-1H61a1,1,0,0,1,1,1Z"/></svg>